Coordinates
version=1
nRows=13
nColumns=36
inDegrees=yes

Units are S.I. units (second, meters, Newtons, ...)
If the header above contains a line with 'inDegrees', this indicates whether rotational values are in degrees (yes) or radians (no).

endheader
time	pelvis_tilt	pelvis_list	pelvis_rotation	pelvis_tx	pelvis_ty	pelvis_tz	hip_flexion_r	hip_adduction_r	hip_rotation_r	knee_angle_r	knee_angle_r_beta	ankle_angle_r	subtalar_angle_r	mtp_angle_r	hip_flexion_l	hip_adduction_l	hip_rotation_l	knee_angle_l	knee_angle_l_beta	ankle_angle_l	subtalar_angle_l	mtp_angle_l	lumbar_extension	lumbar_bending	lumbar_rotation	arm_flex_r	arm_add_r	arm_rot_r	elbow_flex_r	pro_sup_r	arm_flex_l	arm_add_l	arm_rot_l	elbow_flex_l	pro_sup_l
      9.70000000	     -4.17937966	      3.29495036	      6.06376122	     -0.22182271	      0.69118661	      0.11649389	     59.40251050	      7.09226378	      0.67021892	     87.79300771	      1.53227704	     31.89496374	     -4.90304782	     -7.49999987	     52.44825186	     -8.28659649	    -11.14488073	      6.38243207	      0.11139445	    -15.53288990	     -0.14856790	     -7.49999987	    -34.87415308	      4.74431650	      1.09153404	     60.39040838	      3.92022758	   -281.97882430	    118.29926207	     90.95893357	     57.49448617	      3.25814256	     66.97347299	    124.50455894	     86.12928904
      9.71666670	     -4.12689420	      3.35005330	      5.68204641	     -0.22300328	      0.69035508	      0.11690427	     59.40723963	      7.15266029	      0.64100751	     87.96835267	      1.53533739	     32.07813266	     -4.68164018	     -7.49999987	     52.22001824	     -8.53238661	    -11.01289331	      6.19243645	      0.10807840	    -15.81527045	      0.00610295	     -7.49999987	    -35.18288198	      4.74560860	      1.30657340	     60.75598081	      3.97919218	   -281.50992738	    118.51552492	     88.83799077	     57.59539939	      3.19066635	     66.81896103	    124.79297406	     84.38628999
      9.73333330	     -4.27899818	      3.44101381	      5.33139476	     -0.22319665	      0.68945387	      0.11699855	     59.58281716	      7.11538499	      0.55587961	     88.17203898	      1.53889239	     32.50439354	     -4.73457977	     -7.49999987	     52.32153990	     -8.71635023	    -10.95775351	      6.21703975	      0.10850781	    -16.16872130	      0.09233216	     -7.49999987	    -35.23780251	      4.66395718	      1.55424592	     60.89630192	      3.98298765	   -281.28745518	    118.78309561	     88.53631503	     57.64455958	      3.18648446	     66.67706891	    125.05441543	     84.18832596
      9.75000000	     -4.39904499	      3.53808062	      4.97430099	     -0.22257148	      0.69001937	      0.11692592	     59.56700678	      7.11600460	      0.54926257	     88.26384432	      1.54049469	     33.11623957	     -4.52642533	     -7.49999987	     52.35976561	     -8.90784893	    -10.83221885	      6.36765330	      0.11113652	    -16.37458910	      0.07438086	     -7.49999987	    -35.27542838	      4.52626221	      1.77576331	     60.86652031	      3.95679304	   -281.31888900	    118.94795094	     92.24440470	     57.54049020	      3.24207394	     66.47685100	    125.06816936	     87.78618116
      9.76666670	     -4.55180817	      3.59754378	      4.60999834	     -0.22262770	      0.69033918	      0.11628771	     59.61629598	      7.12938074	      0.58930412	     88.30921322	      1.54128653	     33.39433737	     -4.32677900	     -7.49999987	     52.47600451	     -9.11311822	    -10.75892496	      6.52663592	      0.11391129	    -16.40941809	      0.02160968	     -7.49999987	    -35.22405413	      4.49597035	      1.99838506	     60.94491584	      3.99080854	   -281.05544615	    119.01253678	     91.36637607	     57.32213242	      3.22996469	     66.38773924	    125.33555616	     86.97064833
      9.78333330	     -4.71179354	      3.69204047	      4.36175195	     -0.22246358	      0.69001040	      0.11576147	     59.68868889	      7.01431548	      0.63336389	     88.36777568	      1.54230864	     33.83247277	     -4.09665191	     -7.49999987	     52.71427662	     -9.17190766	    -10.73150158	      6.74644325	      0.11774765	    -16.49214416	     -0.18943094	     -7.49999987	    -35.04320329	      4.43789207	      2.18521986	     61.11291785	      3.98168090	   -280.73739533	    119.18697261	     89.93799718	     57.17604977	      3.31901563	     66.44898990	    125.55273398	     85.80734725
      9.80000000	     -4.72138606	      3.79901674	      4.27587125	     -0.22067983	      0.69160608	      0.11616687	     59.46907292	      6.87106521	      0.66927545	     88.27312842	      1.54065673	     33.89076131	     -3.73971783	     -7.49999987	     52.73382161	     -9.08776899	    -10.96898601	      6.83834079	      0.11935156	    -16.59172072	     -0.26464415	     -7.49999987	    -34.85747606	      4.47363367	      2.24937305	     60.99165244	      3.94501035	   -280.39381303	    119.36859184	     89.27566947	     56.98303514	      3.35392003	     66.43851458	    125.59940738	     85.24811993
      9.81666670	     -4.69627615	      3.89321473	      4.20387877	     -0.22244081	      0.69351872	      0.11549249	     59.21886695	      6.72525728	      0.78949113	     88.04632638	      1.53669829	     33.75717292	     -3.31900812	     -7.49999987	     52.71601790	     -8.91755627	    -11.42107922	      6.87502458	      0.11999182	    -16.50294709	     -0.48655665	     -7.49999987	    -34.69170876	      4.37529892	      2.41582932	     60.84545204	      3.72947688	   -280.61160891	    119.62009090	     92.87958358	     56.95996960	      3.68668517	     66.41286907	    125.23806092	     88.49067376
      9.83333330	     -4.94289033	      3.87953381	      4.15634294	     -0.22375300	      0.69451195	      0.11468382	     59.21890949	      6.67002847	      0.85952356	     87.54823281	      1.52800492	     33.62744518	     -2.94293275	     -7.49999987	     53.15877480	     -8.78220266	    -11.58406967	      7.14277777	      0.12466499	    -16.13568239	     -0.76883988	     -7.49999987	    -34.33664947	      4.56815860	      2.41450711	     60.99780818	      3.86652938	   -280.39327344	    119.64506394	     91.47036269	     56.89286763	      3.66029492	     66.35605496	    125.57236372	     87.15722639
      9.85000000	     -5.15948127	      3.93449951	      4.23029006	     -0.22176312	      0.69673278	      0.11333028	     59.01309002	      6.47524199	      0.91718744	     87.14333359	      1.52093809	     33.51989261	     -2.52352147	     -7.49999987	     53.36796192	     -8.46726452	    -11.70391715	      7.15682584	      0.12491017	    -15.41442254	     -0.86239919	     -7.49999987	    -33.86880911	      4.66013773	      2.43014583	     60.87725793	      3.83084214	   -280.42033754	    119.75770255	     90.01045815	     56.90477897	      3.77536269	     66.48432153	    125.53952678	     85.93984700
      9.86666670	     -5.31835469	      3.78676717	      4.11624968	     -0.22233834	      0.70026860	      0.11321310	     58.64338412	      6.67995872	      0.97800905	     86.33427125	      1.50681729	     32.96733931	     -2.51509496	     -7.49999987	     53.56640709	     -8.41801825	    -11.67244639	      7.15116086	      0.12481130	    -14.89555417	     -0.88242947	     -7.49999987	    -33.39081920	      4.89636720	      2.57049557	     60.97571437	      3.90879021	   -280.35965830	    119.71519188	     89.16978150	     56.73486584	      3.83346557	     66.19287078	    125.53059471	     85.15879206
      9.88333330	     -5.43685440	      3.68880853	      4.23984027	     -0.22119116	      0.70315176	      0.11168535	     58.12512654	      6.68861392	      1.10833232	     85.31877356	      1.48909351	     32.28953988	     -2.24572644	     -7.49999987	     53.60275930	     -8.11678904	    -11.88234291	      7.07078067	      0.12340840	    -14.09456719	     -0.17728498	     -7.49999987	    -32.89787871	      5.08293038	      2.71677957	     60.64831089	      3.83493777	   -280.86197102	    119.72672879	     92.97090096	     56.49434924	      4.16469927	     65.95044589	    125.25569481	     88.20221837
      9.90000000	     -5.32061612	      3.50132863	      4.23197767	     -0.22269542	      0.70764016	      0.11235311	     57.36770176	      6.93251222	      1.18391173	     84.25968883	      1.47060900	     31.19215887	     -1.81756778	     -7.49999987	     53.43628639	     -7.96803287	    -11.80678514	      7.02178569	      0.12255328	    -13.43720491	      0.34594430	     -7.49999987	    -32.51762578	      5.34547458	      2.79740394	     60.31429290	      3.87902780	   -281.03792725	    119.69726195	     92.96450563	     56.26452421	      4.24161329	     65.57971504	    125.12579609	     88.11313367
